<svg width="554" height="151" viewBox="0 0 554 151" fill="none" xmlns="http://www.w3.org/2000/svg">
<g clip-path="url(#clip0)">
<path d="M327.049 150.985H297.046C294.083 150.985 291.922 150.332 290.564 149.028C289.206 147.725 288.527 145.65 288.527 142.804V53.8072L287.045 45C284.082 45 252.598 42.3067 254.635 53.8072C254.635 56.6526 253.277 52.5031 254.635 53.8072L254.635 27.5649C254.635 26.0236 254.82 24.7195 255.19 23.6525C255.684 22.5855 256.363 21.6963 257.228 20.9849L281.119 1.60054C281.736 1.12627 282.539 0.77059 283.526 0.533502C284.638 0.177839 285.81 0 287.045 0H384.832C387.795 0 389.956 0.652117 391.314 1.95622C392.671 3.26033 393.351 5.33515 393.351 8.18056V29.699C393.351 31.2403 393.104 32.5444 392.61 33.6114C392.24 34.6785 391.623 35.5677 390.758 36.279L373.482 40.8072C372.988 41.2815 354.644 48.2696 359.459 58.5C358.8 56.7696 362.176 57.2639 360.941 57.2639H359.459V123.42C359.459 124.961 359.213 126.265 358.718 127.332C358.348 128.399 357.731 129.288 356.866 130L332.79 149.206C332.296 149.681 331.494 150.095 330.382 150.451C329.395 150.807 328.284 150.985 327.049 150.985ZM350.94 129.822C353.286 129.822 354.953 129.347 355.94 128.399C357.051 127.332 357.607 125.673 357.607 123.42V36.1012H384.832C387.178 36.1012 388.845 35.6269 389.832 34.6785C390.943 33.6114 391.499 31.9516 391.499 29.699V8.18056C391.499 5.9279 390.943 4.32735 389.832 3.37893C388.845 2.3119 387.178 1.77838 384.832 1.77838H287.045C284.699 1.77838 282.971 2.3119 281.859 3.37893C280.872 4.32735 280.378 5.9279 280.378 8.18056V29.699C280.378 31.9516 280.872 33.6114 281.859 34.6785C282.971 35.6269 284.699 36.1012 287.045 36.1012H314.27V123.42C314.27 125.673 314.764 127.332 315.751 128.399C316.863 129.347 318.591 129.822 320.937 129.822H350.94ZM335.012 113.816V19.5622H297.046V17.7838H374.831V19.5622H336.864V113.816H335.012Z" fill="url(#paint0_linear)"/>
<path d="M235.373 150.017C227.613 150.017 221.217 149.157 216.186 147.438C211.241 145.8 207.318 143.589 204.419 140.805C201.605 138.021 199.643 134.828 198.535 131.225C197.512 127.622 197 123.897 197 120.048V103.836C197 102.771 197.128 101.87 197.384 101.133C197.725 100.315 198.151 99.7005 198.663 99.291L215.291 85.9033C215.717 85.5758 216.272 85.3301 216.954 85.1663C217.636 84.9207 218.446 84.7979 219.384 84.7979H237.931C238.869 84.7979 239.679 84.9207 240.361 85.1663C241.129 85.3301 241.768 85.6167 242.28 86.0261V62.9353C242.28 61.8708 242.408 60.9701 242.664 60.2332C243.005 59.4962 243.474 58.8821 244.071 58.3908L260.571 45.0031C260.997 44.6755 261.551 44.4299 262.234 44.2661C263.001 44.0205 263.811 43.8976 264.664 43.8976H284.746C286.792 43.8976 288.284 44.348 289.222 45.2487C290.16 46.1494 290.629 47.5823 290.629 49.5475V110.345C290.629 114.194 290.033 117.756 288.839 121.031C287.73 124.224 285.726 126.967 282.827 129.26L266.327 142.648C263.427 144.94 259.505 146.742 254.559 148.052C249.613 149.362 243.218 150.017 235.373 150.017ZM289.35 110.345V49.5475C289.35 47.9918 288.967 46.8864 288.199 46.2313C287.517 45.4944 286.366 45.1259 284.746 45.1259H264.664C263.044 45.1259 261.85 45.4944 261.082 46.2313C260.4 46.8864 260.059 47.9918 260.059 49.5475V105.432C260.059 107.07 259.548 108.462 258.524 109.608C257.586 110.673 255.284 111.205 251.617 111.205C247.695 111.205 245.179 110.673 244.071 109.608C243.047 108.462 242.536 107.07 242.536 105.432V90.4478C242.536 88.892 242.152 87.7866 241.384 87.1315C240.702 86.3946 239.551 86.0261 237.931 86.0261H219.384C217.764 86.0261 216.57 86.3946 215.803 87.1315C215.12 87.7866 214.779 88.892 214.779 90.4478V110.345C214.779 114.112 215.291 117.551 216.314 120.662C217.423 123.692 219.341 126.312 222.07 128.523C224.884 130.652 228.679 132.331 233.454 133.559C238.315 134.787 244.454 135.401 251.873 135.401C259.377 135.401 265.559 134.787 270.42 133.559C275.28 132.331 279.075 130.652 281.804 128.523C284.618 126.312 286.579 123.692 287.688 120.662C288.796 117.551 289.35 114.112 289.35 110.345ZM274.001 56.18H275.28V107.397C275.28 112.228 273.66 116.2 270.42 119.311C267.265 122.423 261.168 123.979 252.129 123.979C247.354 123.979 243.388 123.569 240.233 122.75C237.163 121.932 234.733 120.826 232.942 119.434C231.152 117.96 229.873 116.2 229.105 114.153C228.423 112.106 228.082 109.854 228.082 107.397V97.6943H229.361V107.397C229.361 112.065 230.939 115.79 234.094 118.574C237.334 121.358 243.346 122.75 252.129 122.75C260.571 122.75 266.327 121.358 269.397 118.574C272.466 115.708 274.001 111.983 274.001 107.397V56.18Z" fill="url(#paint1_linear)"/>
<path d="M424.337 140.836L364.987 140.938C362.94 140.941 361.447 140.494 360.508 139.594C359.568 138.695 359.097 137.263 359.093 135.298L358.957 55.7085C358.955 54.644 359.081 53.7431 359.336 53.0057C359.675 52.2682 360.143 51.6533 360.739 51.161L377.217 37.7448C377.642 37.4165 378.196 37.1699 378.878 37.005C379.645 36.758 380.455 36.6338 381.308 36.6324L440.658 36.5302C442.704 36.5267 444.197 36.9745 445.137 37.8736C446.076 38.7727 446.548 40.2048 446.551 42.17L446.576 56.5403C446.578 57.6048 446.409 58.5058 446.069 59.2433C445.814 59.9807 445.389 60.5955 444.793 61.0878L433.808 69.8272C434.661 70.2352 435.259 70.8483 435.602 71.6665C436.029 72.4846 436.244 73.5487 436.247 74.8588L436.269 88.0009C436.271 89.0654 436.102 89.9664 435.762 90.7039C435.508 91.4413 435.082 92.0561 434.486 92.5484L423.118 101.78L440.77 101.749C442.816 101.746 444.309 102.194 445.249 103.093C446.188 103.992 446.66 105.424 446.663 107.389L446.688 121.759C446.69 122.824 446.521 123.725 446.181 124.462C445.927 125.2 445.501 125.815 444.905 126.307L428.3 139.601C427.959 139.929 427.405 140.216 426.638 140.463C425.957 140.71 425.189 140.834 424.337 140.836ZM440.812 126.191C442.432 126.188 443.583 125.859 444.264 125.203C445.03 124.464 445.412 123.317 445.409 121.762L445.384 107.391C445.382 105.836 444.996 104.731 444.227 104.077C443.544 103.341 442.392 102.975 440.772 102.978L405.469 103.038L405.451 92.4756L430.393 92.4327C432.013 92.4299 433.164 92.1004 433.845 91.4441C434.611 90.7059 434.993 89.5589 434.99 88.0031L434.968 74.861C434.965 73.3052 434.579 72.2005 433.811 71.5468C433.127 70.811 431.975 70.4445 430.355 70.4473L405.413 70.4902L405.397 61.0328L440.7 60.9721C442.32 60.9693 443.47 60.6398 444.151 59.9835C444.918 59.2453 445.299 58.0983 445.297 56.5425L445.272 42.1722C445.269 40.6164 444.884 39.5117 444.115 38.8579C443.432 38.1222 442.28 37.7557 440.66 37.7585L381.31 37.8606C379.69 37.8634 378.497 38.2339 377.73 38.9722C377.049 39.6284 376.71 40.7344 376.713 42.2902L376.85 121.88C376.852 123.435 377.196 124.581 377.879 125.317C378.648 125.971 379.842 126.296 381.462 126.293L440.812 126.191ZM433.884 113.921L433.886 115.149L390.78 115.223L390.666 48.8986L433.772 48.8244L433.774 50.0527L391.948 50.1247L392.001 80.9533L423.466 80.8992L423.468 82.1274L392.003 82.1815L392.057 113.993L433.884 113.921ZM517.457 140.675L486.247 140.729C475.077 140.748 466.8 137.979 461.419 132.42C456.122 126.861 453.466 119.66 453.451 110.817L453.392 76.3032C453.384 71.7997 454.059 67.9091 455.418 64.6314C456.777 61.2719 458.776 58.4845 461.415 56.2691L478.021 42.8528C480.66 40.7193 484.026 39.1168 488.117 38.0453C492.208 36.9737 497.025 36.4332 502.568 36.4237L533.778 36.37C535.824 36.3664 537.317 36.8142 538.257 37.7133C539.197 38.6124 539.668 40.0445 539.671 42.0097L539.697 56.8713C539.699 57.9358 539.53 58.8368 539.19 59.5743C538.935 60.3117 538.51 60.9266 537.914 61.4189L521.309 74.7124C520.968 75.0405 520.414 75.3281 519.647 75.575C518.966 75.8219 518.198 75.946 517.346 75.9475L501.613 75.9746L501.649 96.7317C501.652 98.4512 502.208 99.6785 503.318 100.414C504.427 101.067 506.048 101.391 508.18 101.388L533.89 101.344C535.936 101.34 537.429 101.788 538.369 102.687C539.308 103.586 539.78 105.018 539.783 106.983L539.808 121.599C539.81 122.664 539.641 123.565 539.301 124.302C539.047 125.04 538.622 125.654 538.025 126.147L521.42 139.44C521.08 139.768 520.526 140.056 519.759 140.303C519.077 140.55 518.31 140.674 517.457 140.675ZM533.932 126.031C535.552 126.028 536.703 125.699 537.384 125.042C538.15 124.304 538.532 123.157 538.529 121.601L538.504 106.985C538.501 105.43 538.116 104.325 537.347 103.671C536.664 102.935 535.512 102.569 533.892 102.572L508.182 102.616C505.539 102.621 503.577 102.174 502.296 101.275C501.015 100.295 500.373 98.781 500.37 96.7339L500.319 67.5019C500.316 65.4549 500.953 63.939 502.23 62.9542C503.507 61.8875 505.468 61.3519 508.111 61.3474L533.821 61.3031C535.441 61.3003 536.592 60.9708 537.273 60.3146C538.039 59.5763 538.421 58.4293 538.418 56.8735L538.392 42.0119C538.39 40.4562 538.004 39.3514 537.235 38.6977C536.552 37.9619 535.4 37.5954 533.78 37.5982L502.57 37.6519C491.911 37.6703 483.984 39.7719 478.79 43.9568C473.681 48.0598 471.133 54.3691 471.148 62.8848L471.214 101.083C471.228 109.599 473.797 115.899 478.921 119.984C484.129 124.07 492.063 126.103 502.722 126.085L533.932 126.031ZM526.876 113.761L526.878 114.989L505.517 115.026C497.246 115.04 491.744 113.821 489.011 111.369C486.363 108.918 485.034 104.867 485.025 99.2168L484.965 64.8262C484.955 59.0126 486.313 54.8752 489.037 52.414C491.762 49.9529 497.217 48.7153 505.403 48.7012L526.764 48.6644L526.766 49.8926L505.405 49.9294C497.901 49.9423 492.83 51.0974 490.19 53.3946C487.55 55.61 486.235 59.4198 486.245 64.824L486.304 99.2146C486.313 104.537 487.598 108.301 490.16 110.508C492.722 112.714 497.841 113.811 505.515 113.798L526.876 113.761Z" fill="url(#paint2_linear)" fill-opacity="0.98"/>
<path fill-rule="evenodd" clip-rule="evenodd" d="M63.6168 90.6408L67.3251 103.108L66.2674 104.476C66.2674 104.476 66.974 121.962 66.2674 127.132C65.5609 132.298 65.2054 142.789 65.2054 142.789L58.8508 143.246C58.8508 143.246 57.6176 155.563 57.2622 160.578C56.9067 165.596 54.7914 174.564 50.5521 182.47C46.3171 190.376 45.9617 197.22 46.3171 202.235C46.6683 207.254 48.7879 213.334 40.3136 214.702C31.8394 216.07 35.8988 198.588 37.1363 195.395C38.3738 192.201 40.3136 184.598 40.1381 179.734C39.9582 174.87 41.5511 163.162 42.2577 159.969C42.96 156.776 41.0202 142.638 41.0202 142.638L35.1922 142.944C35.1922 142.944 34.8411 149.183 33.428 152.377C32.0149 155.566 29.0132 165.456 29.0132 165.456C29.0132 170.777 23.8961 184.472 22.6585 187.515C21.4253 190.553 20.8943 198.488 17.5372 206.697C14.1843 214.909 6.41654 212.221 4.82788 209.333C3.23494 206.442 14.3598 192.404 14.3598 188.3C14.3598 184.196 11.3581 165.091 15.2419 158.402C19.1258 151.713 17.3145 145.227 17.3145 145.227H15.7729C11.5336 133.427 14.1843 107.216 14.1843 107.216L13.3022 106.147L16.4795 91.8577C16.4795 91.8577 4.12135 87.7535 3.05939 78.1735C2.00171 68.5971 15.4218 40.0118 15.4218 40.0118C27.6044 37.2757 32.7215 32.8655 33.428 32.4119C34.1346 31.9546 34.6655 28.7613 33.7834 27.6993C32.897 26.6336 31.6638 22.9867 31.6638 22.9867C27.0734 18.7277 29.8996 18.1192 29.8996 18.1192C25.6603 4.74107 40.8489 2.62446 46.467 4.67469C52.8944 7.01624 52.6717 11.2827 52.6717 12.1935C52.6675 12.9236 52.2136 17.0794 52.2136 17.0794C52.2136 17.0794 53.0058 16.9724 53.1813 17.7394C53.5624 19.3693 51.2244 23.0015 51.2244 23.0015C51.2244 23.0015 51.0403 23.6984 50.9032 24.0598C50.3723 25.4315 48.9549 27.5702 48.775 31.066C48.5995 34.5654 56.5342 38.2381 56.5342 38.2381C69.5775 40.5686 68.5626 45.4877 69.2692 47.6154C69.9757 49.743 74.7417 68.1399 78.0946 77.7199C81.4517 87.2963 63.6168 90.6408 63.6168 90.6408ZM20.8301 75.5627C20.8301 74.3459 18.5563 71.3185 18.5563 71.3185L17.9739 75.0576V78.675L20.1407 78.7303C20.1407 78.7303 20.8301 76.7796 20.8301 75.5627ZM62.5591 75.0244L61.3216 68.1399C61.3216 68.1399 59.7329 68.291 58.8508 69.2055C57.9687 70.1163 59.7329 72.244 58.8508 73.1585C57.9687 74.0693 57.2622 75.8946 57.2622 75.8946L58.8508 77.4139L62.5591 75.0244Z" fill="#141BBC"/>
<path fill-rule="evenodd" clip-rule="evenodd" d="M200.935 212.061C197.317 210.036 191.579 210.921 191.536 209.026C191.352 201.371 182.119 165.473 182.299 164.695C182.483 163.913 173.979 127.455 173.256 123.248C172.532 119.041 170.9 118.104 169.817 123.093C168.729 128.079 167.102 154.097 166.922 161.734C166.738 169.367 169.273 186.197 169.453 188.999C169.633 191.806 170.9 201.463 171.466 204.424C172.031 207.385 170.721 208.322 167.646 210.346C164.567 212.371 164.751 212.839 157.694 212.994C150.637 213.152 152.988 209.413 152.988 209.413C155.159 208.008 158.418 201.622 158.418 201.622L155.703 189.154C149.73 174.198 150.273 155.344 150.273 149.425C150.273 143.503 146.111 112.495 145.388 110.626C144.664 108.756 140.866 109.848 140.866 109.848L140.686 105.331C133.989 101.433 128.563 89.279 128.019 75.8824C127.476 62.4821 138.511 37.8608 138.511 37.8608C152.081 33.6976 159.317 27.8898 159.317 27.8898L158.153 21.8166C155.258 22.13 154.967 19.0104 154.063 16.3591C153.16 13.7115 156.221 14.6481 156.221 14.6481C156.221 14.6481 155.836 8.57115 156.2 6.85647C156.56 5.14179 159.043 3.11737 163.569 1.08926C168.091 -0.935167 169.624 -0.157108 175.264 3.58568C180.908 7.32478 178.844 13.5566 178.484 18.0738C178.12 22.5946 174.694 28.1111 174.694 28.1111V29.1362C174.694 29.1362 176.107 29.1915 179.546 33.0855C182.984 36.9832 197.064 39.0629 197.064 39.0629C197.064 39.0629 207.088 76.5055 208.9 81.9593C210.707 87.4094 210.904 110.165 210.904 110.165C210.904 110.165 209.384 110.132 208.72 113.122C207.786 117.296 203.11 121.224 200.395 121.065C197.681 120.91 200.575 116.858 201.119 115.147C201.663 113.432 200.755 111.872 200.031 111.717C199.308 111.562 199.488 114.833 198.224 115.925C196.957 117.016 196.452 114.239 197.317 112.809C198.186 111.374 198.404 105.176 198.404 105.176C198.404 105.176 196.233 85.8533 194.242 81.491C192.251 77.1287 190.624 69.9603 190.624 69.9603C188.817 78.0617 190.804 89.4375 193.159 93.0218C195.51 96.606 196.413 115.611 196.957 119.977C197.501 124.339 197.681 148.02 198.948 156.904C200.211 165.787 203.217 181.529 203.941 186.204C204.523 189.962 204.703 199.682 206.275 204.192C207.362 207.311 213.601 207.544 217.404 212.371C221.202 217.201 204.558 214.085 200.935 212.061ZM145.931 80.2446C145.388 75.5689 145.752 64.9748 144.304 66.2212C142.857 67.4675 142.133 76.6604 141.953 78.2165C141.769 79.7763 141.769 87.568 144.304 88.1912C144.304 88.1912 146.475 84.9167 145.931 80.2446Z" fill="#B41558"/>
<path fill-rule="evenodd" clip-rule="evenodd" d="M133.705 196.734C135.131 198.371 142.723 206.542 137.508 209.809C137.508 209.809 127.539 212.269 126.117 204.09L122.794 200.41C122.794 200.41 121.839 197.958 121.839 196.734V195.506C121.839 195.506 114.727 168.535 115.198 162.816C115.669 157.097 105.709 116.645 102.386 120.731C102.386 120.731 100.018 137.491 97.6412 141.163C97.6412 141.163 95.7442 158.325 96.2195 160.773C96.6906 163.229 95.7442 190.616 90.5243 194.702C90.5243 194.702 94.7936 197.969 90.5243 201.236C90.5243 201.236 86.2465 202.058 85.3002 204.097C85.3002 204.097 73.4388 215.13 70.5955 208.592C70.5955 208.592 75.8068 199.189 80.0803 195.517C80.0803 195.517 78.1834 182.035 79.6179 180.402C81.0309 178.761 81.0309 154.239 81.0309 154.239L79.134 149.744C79.134 149.744 80.0803 142.391 81.0309 140.747C81.9816 139.12 78.1833 108.057 76.2821 106.424L73.4388 105.609C73.4388 105.609 61.0978 86.8098 62.0527 79.4533L72.4882 40.2223C72.4882 40.2223 91.475 32.0472 92.8924 33.2751L93.843 31.2285V27.9614C93.843 27.9614 85.3002 9.57567 91.475 4.67133C91.475 4.67133 100.48 -6.3653 111.4 5.48993C111.4 5.48993 115.198 16.9359 111.4 21.8328C111.4 21.8328 108.552 28.7727 110.929 30.8229C110.929 30.8229 129.907 39.813 131.333 39.813C131.333 39.813 138.921 56.1595 137.974 58.2061C137.032 60.2489 139.396 61.8751 140.822 63.9217C142.248 65.9682 141.293 70.054 141.772 71.2819C142.248 72.5098 143.669 77.4142 143.669 77.4142L134.176 104.381L129.907 105.609C129.907 105.609 128.965 132.571 128.489 137.476C128.006 142.38 128.014 153.007 129.44 155.865C130.862 158.738 133.23 185.288 133.23 188.562C133.23 191.833 132.283 195.096 133.705 196.734ZM81.0309 95.3869C81.0309 95.3869 81.0309 90.4863 79.6179 89.6603C78.1834 88.8453 82.4483 63.0994 77.708 64.7366C77.708 64.7366 74.8647 78.2217 73.4388 79.0403C73.4388 79.0403 78.1834 93.3478 78.6587 94.9776C79.134 96.6112 81.0309 95.3869 81.0309 95.3869ZM128.006 92.5292C130.862 95.3869 131.808 78.2217 132.754 77.8124C133.581 77.4621 126.974 69.1985 126.07 65.3598C126.091 64.4564 126.117 63.918 126.117 63.918C125.912 64.2535 125.924 64.7587 126.07 65.3598C125.912 70.8136 125.573 90.0733 128.006 92.5292Z" fill="#0D6EFF"/>
</g>
<defs>
<linearGradient id="paint0_linear" x1="308.375" y1="-44.9265" x2="308.375" y2="121.397" gradientUnits="userSpaceOnUse">
<stop offset="0.416667" stop-color="#E10B7B" stop-opacity="0.98"/>
<stop offset="0.822917" stop-color="#01A5E4"/>
</linearGradient>
<linearGradient id="paint1_linear" x1="243.458" y1="15.8529" x2="243.458" y2="159.147" gradientUnits="userSpaceOnUse">
<stop offset="0.473958" stop-color="#E10B7B"/>
<stop offset="1" stop-color="#01A5E4"/>
</linearGradient>
<linearGradient id="paint2_linear" x1="447.719" y1="8.47332" x2="447.952" y2="144.091" gradientUnits="userSpaceOnUse">
<stop offset="0.270833" stop-color="#E10B7B"/>
<stop offset="1" stop-color="#01A5E4"/>
</linearGradient>
<clipPath id="clip0">
<rect width="554" height="151" fill="white"/>
</clipPath>
</defs>
</svg>
